<?xml version="1.0" encoding="UTF-8" standalone="no"?>
<!-- Created with Inkscape (http://www.inkscape.org/) -->

<svg
   xmlns:dc="http://purl.org/dc/elements/1.1/"
   xmlns:cc="http://creativecommons.org/ns#"
   xmlns:rdf="http://www.w3.org/1999/02/22-rdf-syntax-ns#"
   xmlns:svg="http://www.w3.org/2000/svg"
   xmlns="http://www.w3.org/2000/svg"
   xmlns:sodipodi="http://sodipodi.sourceforge.net/DTD/sodipodi-0.dtd"
   xmlns:inkscape="http://www.inkscape.org/namespaces/inkscape"
   width="65.760544mm"
   height="24.422947mm"
   viewBox="0 0 233.0098 86.538001"
   id="svg5296"
   version="1.1"
   inkscape:version="0.91 r13725"
   sodipodi:docname="Logo_ENS_Rennes_Mention_NormaleSup.svg">
  <defs
     id="defs5298">
    <clipPath
       clipPathUnits="userSpaceOnUse"
       id="clipPath4179">
      <path
         d="m 0,0 677.758,0 0,297.478 L 0,297.478 0,0 Z"
         id="path4181"
         inkscape:connector-curvature="0" />
    </clipPath>
    <clipPath
       clipPathUnits="userSpaceOnUse"
       id="clipPath4187">
      <path
         d="m 0,297.478 677.758,0 L 677.758,0 0,0 0,297.478 Z"
         id="path4189"
         inkscape:connector-curvature="0" />
    </clipPath>
  </defs>
  <sodipodi:namedview
     id="base"
     pagecolor="#ffffff"
     bordercolor="#666666"
     borderopacity="1.0"
     inkscape:pageopacity="0.0"
     inkscape:pageshadow="2"
     inkscape:zoom="1.979899"
     inkscape:cx="122.24306"
     inkscape:cy="31.339321"
     inkscape:document-units="px"
     inkscape:current-layer="g4175"
     showgrid="false"
     fit-margin-top="0"
     fit-margin-left="0"
     fit-margin-right="0"
     fit-margin-bottom="0"
     inkscape:window-width="1366"
     inkscape:window-height="713"
     inkscape:window-x="0"
     inkscape:window-y="0"
     inkscape:window-maximized="1" />
  <metadata
     id="metadata5301">
    <rdf:RDF>
      <cc:Work
         rdf:about="">
        <dc:format>image/svg+xml</dc:format>
        <dc:type
           rdf:resource="http://purl.org/dc/dcmitype/StillImage" />
        <dc:title></dc:title>
      </cc:Work>
    </rdf:RDF>
  </metadata>
  <g
     inkscape:label="Layer 1"
     inkscape:groupmode="layer"
     id="layer1"
     transform="translate(-114.92366,-483.37892)">
    <g
       id="g4171"
       transform="matrix(0.375,0,0,-0.375,99.191477,585.57658)">
      <g
         id="g4173">
        <g
           id="g4175">
          <g
             id="g4177"
             clip-path="url(#clipPath4179)">
            <g
               id="g4183">
              <g
                 id="g4185"
                 clip-path="url(#clipPath4187)">
                <g
                   id="g4191"
                   transform="translate(257.9395,172.8164)">
                  <path
                     d="m 0,0 c -7.732,7.988 -18.621,13.066 -30.65,13.059 -0.31,0 -0.655,0 -1.034,-0.007 l 0.042,0 c -0.176,-0.011 -0.358,-0.011 -0.556,-0.011 -7.029,0.011 -13.334,2.925 -18.029,7.734 -4.678,4.819 -7.565,11.433 -7.565,18.638 0.028,14.58 11.817,26.339 26.369,26.367 7.329,0 13.94,-2.946 18.786,-7.738 3.413,-3.392 5.885,-7.646 7.045,-12.41 l 17.229,3.492 C 7.169,68.769 -10.489,83.35 -31.423,83.361 -55.68,83.355 -75.362,63.711 -75.365,39.413 c 0,-11.94 4.778,-22.915 12.531,-30.887 7.731,-7.977 18.616,-13.066 30.636,-13.066 0.313,0 0.633,0.006 0.969,0.02 l 0.064,0 c 0.14,0 0.312,0.005 0.515,0.005 7.053,-0.005 13.355,-2.924 18.038,-7.728 4.673,-4.81 7.554,-11.419 7.554,-18.652 -0.027,-14.538 -11.783,-26.338 -26.365,-26.367 -7.291,0.017 -13.545,2.898 -18.293,7.688 -4.72,4.8 -7.775,11.517 -8.079,19.035 -0.488,11.871 -5.291,22.746 -13.101,30.672 -7.781,7.945 -18.713,12.933 -30.839,12.919 -12.102,0.014 -23.033,-4.974 -30.818,-12.91 -7.816,-7.929 -12.642,-18.799 -13.115,-30.681 -0.301,-7.536 -3.352,-14.242 -8.065,-19.042 -4.746,-4.792 -11.006,-7.664 -18.312,-7.681 -14.564,0.029 -26.341,11.807 -26.364,26.367 0.023,14.563 11.796,26.337 26.364,26.369 l 0,17.578 c -14.568,0.023 -26.341,11.791 -26.364,26.361 0.023,14.566 11.796,26.339 26.364,26.367 12.381,-0.021 22.728,-8.511 25.584,-20.003 l 17.239,3.491 c -4.471,19.534 -21.935,34.093 -42.823,34.093 -24.278,-0.006 -43.939,-19.67 -43.942,-43.948 0.003,-14.376 6.9,-27.141 17.569,-35.154 -10.669,-8.012 -17.566,-20.778 -17.569,-35.154 0.003,-24.272 19.66,-43.94 43.942,-43.946 12.12,-0.019 23.054,4.994 30.836,12.933 7.811,7.928 12.627,18.804 13.101,30.666 0.303,7.552 3.353,14.26 8.074,19.051 4.742,4.782 10.998,7.651 18.299,7.665 7.333,-0.021 13.577,-2.883 18.312,-7.665 4.708,-4.791 7.752,-11.499 8.061,-19.062 0.487,-11.851 5.309,-22.719 13.116,-30.655 7.766,-7.918 18.673,-12.933 30.763,-12.933 l 0.06,0 c 24.3,0.006 43.942,19.702 43.945,43.946 C 12.519,-18.954 7.752,-7.975 0,0 m -31.571,13.052 -0.071,0 0.025,0 0.046,0 z"
                     style="fill:#3b4ca8;fill-opacity:1;fill-rule:nonzero;stroke:none"
                     id="path4193"
                     inkscape:connector-curvature="0" />
                </g>
                <g
                   id="g4195"
                   transform="translate(47.1855,60.667)">
                  <path
                     d="m 0,0 0,-17.78 6.291,0 0,17.78 c 0,6.931 5.644,12.574 12.578,12.574 l 0,6.292 C 8.448,18.866 0,10.419 0,0"
                     style="fill:#3b4ca8;fill-opacity:1;fill-rule:nonzero;stroke:none"
                     id="path4197"
                     inkscape:connector-curvature="0" />
                </g>
                <g
                   id="g4199"
                   transform="translate(144.6753,60.667)">
                  <path
                     d="M 0,0 C -0.02,10.399 -8.461,18.818 -18.865,18.818 -29.269,18.818 -37.706,10.399 -37.73,0 l 0,-17.78 6.287,0 0,17.752 c 0.014,6.928 5.65,12.557 12.578,12.557 6.929,0 12.569,-5.629 12.577,-12.557 l 0,-17.752 6.291,0 L 0.003,0 0,0 Z"
                     style="fill:#3b4ca8;fill-opacity:1;fill-rule:nonzero;stroke:none"
                     id="path4201"
                     inkscape:connector-curvature="0" />
                </g>
                <g
                   id="g4203"
                   transform="translate(187.377,60.667)">
                  <path
                     d="M 0,0 C -0.022,10.399 -8.459,18.818 -18.865,18.818 -29.27,18.818 -37.706,10.399 -37.731,0 l 0,-17.78 6.291,0 0,17.752 c 0.01,6.928 5.648,12.557 12.575,12.557 6.93,0 12.571,-5.629 12.574,-12.557 l 0,-17.752 6.291,0 L 0,0 Z"
                     style="fill:#3b4ca8;fill-opacity:1;fill-rule:nonzero;stroke:none"
                     id="path4205"
                     inkscape:connector-curvature="0" />
                </g>
                <g
                   id="g4207"
                   transform="translate(84.0454,73.2412)">
                  <path
                     d="m 0,0 c 5.845,0 10.776,-4.017 12.18,-9.426 l -24.359,0 C -10.78,-4.017 -5.846,0 0,0 M 18.864,-12.574 C 18.864,-2.155 10.419,6.292 0,6.292 c -10.42,0 -18.867,-8.447 -18.867,-18.866 l 0,-0.045 c 0,-10.422 8.447,-18.863 18.867,-18.863 l 0,6.288 c -5.862,0 -10.806,4.029 -12.192,9.471 l 31.052,0 0.004,3.149 z"
                     style="fill:#3b4ca8;fill-opacity:1;fill-rule:nonzero;stroke:none"
                     id="path4209"
                     inkscape:connector-curvature="0" />
                </g>
                <g
                   id="g4211"
                   transform="translate(210.2769,73.2412)">
                  <path
                     d="m 0,0 c 5.849,0 10.776,-4.017 12.177,-9.426 l -24.355,0 C -10.777,-4.017 -5.848,0 0,0 M 18.868,-12.574 C 18.868,-2.155 10.423,6.292 0,6.292 c -10.416,0 -18.863,-8.447 -18.863,-18.866 l 0,-0.045 c 0,-10.422 8.447,-18.863 18.863,-18.863 l 0,6.288 c -5.865,0 -10.803,4.029 -12.189,9.471 l 31.046,0 0.011,3.149 z"
                     style="fill:#3b4ca8;fill-opacity:1;fill-rule:nonzero;stroke:none"
                     id="path4213"
                     inkscape:connector-curvature="0" />
                </g>
                <g
                   id="g4215"
                   transform="translate(233.1777,60.667)">
                  <path
                     d="m 0,0 6.29,0 c 0,6.931 5.641,12.574 12.576,12.574 2.915,0 5.591,-1 7.727,-2.663 l 5.006,4.003 c -3.352,3.08 -7.825,4.952 -12.733,4.952 C 8.446,18.866 0,10.419 0,0"
                     style="fill:#3b4ca8;fill-opacity:1;fill-rule:nonzero;stroke:none"
                     id="path4217"
                     inkscape:connector-curvature="0" />
                </g>
                <g
                   id="g4219"
                   transform="translate(255.187,60.6221)">
                  <path
                     d="m 0,0 c 0,-6.93 -5.638,-12.575 -12.574,-12.575 -2.9,0 -5.574,0.987 -7.703,2.64 l -5.008,-4.005 c 3.353,-3.059 7.814,-4.923 12.711,-4.923 10.418,0 18.866,8.441 18.866,18.863 L 0,0 Z"
                     style="fill:#3b4ca8;fill-opacity:1;fill-rule:nonzero;stroke:none"
                     id="path4221"
                     inkscape:connector-curvature="0" />
                </g>
                <g
                   id="g4223"
                   transform="translate(378.8213,235.7759)">
                  <path
                     d="m 0,0 -7.347,-8.268 -2.545,0 L -4.63,0 0,0 Z m 2.37,-23.999 c -0.406,5.605 -3.411,9.83 -9.428,9.83 -5.668,0 -8.675,-4.742 -9.136,-9.83 l 18.564,0 z m -18.682,-3.183 c 0.118,-6.188 2.949,-11.396 10.065,-11.396 4.105,0 7.519,2.951 8.387,6.942 l 3.644,0 c -1.794,-6.942 -6.132,-10.123 -13.131,-10.123 -8.675,0 -12.724,7.462 -12.724,15.384 0,7.871 4.338,15.385 12.957,15.385 9.717,0 13.244,-7.111 13.244,-16.192 l -22.442,0 z"
                     style="fill:#3b4ca8;fill-opacity:1;fill-rule:nonzero;stroke:none"
                     id="path4225"
                     inkscape:connector-curvature="0" />
                </g>
                <g
                   id="g4227"
                   transform="translate(411.9023,215.0146)">
                  <path
                     d="m 0,0 c -0.29,4.45 -3.124,6.592 -7.924,6.592 -5.321,0 -8.619,-5.554 -8.619,-12.142 0,-6.655 3.298,-12.266 8.619,-12.266 4.51,0 7.634,2.776 7.924,6.767 l 3.759,0 c -0.925,-6.652 -4.742,-9.949 -11.337,-9.949 -8.678,0 -12.725,7.462 -12.725,15.384 0,7.871 4.338,15.385 12.956,15.385 C -1.389,9.771 3.468,6.188 3.759,0 L 0,0 Z"
                     style="fill:#3b4ca8;fill-opacity:1;fill-rule:nonzero;stroke:none"
                     id="path4229"
                     inkscape:connector-curvature="0" />
                </g>
                <g
                   id="g4231"
                   transform="translate(434.8604,221.6064)">
                  <path
                     d="m 0,0 c -6.999,0 -9.774,-6.822 -9.774,-12.206 0,-5.377 2.775,-12.202 9.774,-12.202 6.997,0 9.774,6.825 9.774,12.202 C 9.774,-6.822 6.997,0 0,0 m 13.534,-12.206 c 0,-7.632 -4.28,-15.383 -13.534,-15.383 -9.254,0 -13.532,7.751 -13.532,15.383 0,7.64 4.278,15.386 13.532,15.386 9.254,0 13.534,-7.746 13.534,-15.386"
                     style="fill:#3b4ca8;fill-opacity:1;fill-rule:nonzero;stroke:none"
                     id="path4233"
                     inkscape:connector-curvature="0" />
                </g>
                <path
                   d="m 460.018,194.888 -3.47,0 0,41.759 3.47,0 0,-41.759 z"
                   style="fill:#3b4ca8;fill-opacity:1;fill-rule:nonzero;stroke:none"
                   id="path4235"
                   inkscape:connector-curvature="0" />
                <g
                   id="g4237"
                   transform="translate(490.959,211.7773)">
                  <path
                     d="m 0,0 c -0.404,5.604 -3.412,9.829 -9.428,9.829 -5.666,0 -8.676,-4.742 -9.136,-9.829 L 0,0 Z m -18.683,-3.184 c 0.119,-6.188 2.952,-11.395 10.066,-11.395 4.107,0 7.519,2.951 8.387,6.941 l 3.643,0 c -1.792,-6.941 -6.13,-10.122 -13.129,-10.122 -8.677,0 -12.724,7.461 -12.724,15.384 0,7.87 4.336,15.385 12.956,15.385 9.715,0 13.244,-7.111 13.244,-16.193 l -22.443,0 z"
                     style="fill:#3b4ca8;fill-opacity:1;fill-rule:nonzero;stroke:none"
                     id="path4239"
                     inkscape:connector-curvature="0" />
                </g>
                <g
                   id="g4241"
                   transform="translate(365.3672,134.0703)">
                  <path
                     d="m 0,0 -3.468,0 0,22.498 c 0,2.257 -0.175,4.567 -0.291,6.537 l 3.585,0 0.174,-4.28 0.116,-0.12 c 2.025,3.588 5.322,5.265 9.08,5.265 9.486,0 10.239,-8.384 10.239,-11.74 l 0,-18.16 -3.47,0 0,18.736 c 0,5.036 -2.894,7.982 -7.636,7.982 C 2.604,26.718 0,21.919 0,16.714 L 0,0 Z"
                     style="fill:#3b4ca8;fill-opacity:1;fill-rule:nonzero;stroke:none"
                     id="path4243"
                     inkscape:connector-curvature="0" />
                </g>
                <g
                   id="g4245"
                   transform="translate(406.4326,160.7881)">
                  <path
                     d="m 0,0 c -7,0 -9.778,-6.823 -9.778,-12.201 0,-5.376 2.778,-12.202 9.778,-12.202 6.997,0 9.773,6.826 9.773,12.202 C 9.773,-6.823 6.997,0 0,0 m 13.532,-12.201 c 0,-7.633 -4.278,-15.385 -13.532,-15.385 -9.257,0 -13.536,7.752 -13.536,15.385 0,7.634 4.279,15.384 13.536,15.384 9.254,0 13.532,-7.75 13.532,-15.384"
                     style="fill:#3b4ca8;fill-opacity:1;fill-rule:nonzero;stroke:none"
                     id="path4247"
                     inkscape:connector-curvature="0" />
                </g>
                <g
                   id="g4249"
                   transform="translate(431.5303,134.0703)">
                  <path
                     d="m 0,0 -3.471,0 0,22.498 c 0.058,2.257 -0.174,4.567 -0.291,6.537 l 3.587,0 0.175,-4.28 0.116,0 c 1.039,2.948 3.642,5.031 6.537,5.145 1.154,0.06 2.311,0 3.468,-0.056 l 0,-3.355 C 9.425,26.548 8.677,26.718 7.98,26.718 2.833,26.718 0.116,23.021 0,17.465 L 0,0 Z"
                     style="fill:#3b4ca8;fill-opacity:1;fill-rule:nonzero;stroke:none"
                     id="path4251"
                     inkscape:connector-curvature="0" />
                </g>
                <g
                   id="g4253"
                   transform="translate(451.6563,158.8252)">
                  <path
                     d="m 0,0 0.115,-0.12 c 2.025,3.588 5.322,5.266 9.08,5.266 4.569,0 8.157,-2.542 9.43,-6.362 2.139,3.414 5.494,6.362 10.005,6.362 9.486,0 10.236,-8.385 10.236,-11.741 l 0,-18.16 -3.47,0 0,18.736 c 0,5.036 -2.891,7.982 -7.633,7.982 -5.725,0 -8.329,-4.799 -8.329,-10.004 l 0,-16.714 -3.469,0 0,18.736 c 0,5.036 -2.895,7.982 -7.637,7.982 C 2.603,1.963 0,-2.836 0,-8.041 l 0,-16.714 -3.473,0 0,22.498 c 0,2.257 -0.17,4.568 -0.286,6.537 l 3.584,0 L 0,0 Z"
                     style="fill:#3b4ca8;fill-opacity:1;fill-rule:nonzero;stroke:none"
                     id="path4255"
                     inkscape:connector-curvature="0" />
                </g>
                <g
                   id="g4257"
                   transform="translate(508.3359,136.3848)">
                  <path
                     d="M 0,0 C 7.572,0 9.021,6.246 8.673,12.318 3.758,12.146 -6.537,13.073 -6.537,5.781 -6.537,1.85 -3.529,0 0,0 m 8.673,18.16 c -0.347,4.744 -2.778,6.243 -6.882,6.243 -3.645,0 -6.652,-1.096 -7.113,-5.029 l -3.703,0 c 0.869,5.956 5.32,8.212 10.873,8.212 6.421,0 10.413,-2.948 10.297,-9.6 l 0,-13.765 c -0.057,-2.257 0.171,-4.57 0.287,-6.535 l -3.584,0 -0.118,4.278 -0.117,0 -0.17,-0.403 C 7.169,-0.87 3.294,-3.183 -0.639,-3.183 c -5.379,0 -9.658,3.294 -9.658,8.964 0,3.935 2.37,6.944 5.842,8.39 3.875,1.675 8.905,1.096 13.128,1.326 l 0,2.663 z"
                     style="fill:#3b4ca8;fill-opacity:1;fill-rule:nonzero;stroke:none"
                     id="path4259"
                     inkscape:connector-curvature="0" />
                </g>
                <path
                   d="m 533.954,134.07 -3.471,0 0,41.757 3.471,0 0,-41.757 z"
                   style="fill:#3b4ca8;fill-opacity:1;fill-rule:nonzero;stroke:none"
                   id="path4261"
                   inkscape:connector-curvature="0" />
                <g
                   id="g4263"
                   transform="translate(564.8945,150.959)">
                  <path
                     d="m 0,0 c -0.406,5.609 -3.412,9.829 -9.43,9.829 -5.668,0 -8.674,-4.742 -9.136,-9.829 L 0,0 Z m -18.685,-3.181 c 0.119,-6.189 2.951,-11.393 10.066,-11.393 4.108,0 7.519,2.948 8.389,6.937 l 3.644,0 c -1.796,-6.937 -6.131,-10.12 -13.131,-10.12 -8.678,0 -12.724,7.459 -12.724,15.385 0,7.866 4.337,15.384 12.955,15.384 9.718,0 13.246,-7.113 13.246,-16.193 l -22.445,0 z"
                     style="fill:#3b4ca8;fill-opacity:1;fill-rule:nonzero;stroke:none"
                     id="path4265"
                     inkscape:connector-curvature="0" />
                </g>
                <g
                   id="g4267"
                   transform="translate(371.5566,104.3516)">
                  <path
                     d="m 0,0 c 5.495,0 10.121,-1.907 10.584,-8.038 l -3.759,0 c -0.346,3.641 -3.587,4.859 -7.171,4.859 -3.24,0 -6.537,-1.275 -6.537,-4.688 0,-4.279 5.61,-3.872 13.477,-6.651 3.008,-1.04 4.917,-3.642 4.917,-6.764 0,-6.537 -6.073,-9.487 -12.205,-9.487 -5.033,0 -10.818,2.372 -10.932,8.792 l 3.759,0 c 0.29,-4.337 4.108,-5.615 8.041,-5.615 3.701,0 7.575,1.74 7.575,5.79 0,4.161 -4.568,4.854 -9.194,5.899 -4.571,1.097 -9.197,2.427 -9.197,7.807 C -10.642,-2.083 -5.089,0 0,0"
                     style="fill:#3b4ca8;fill-opacity:1;fill-rule:nonzero;stroke:none"
                     id="path4269"
                     inkscape:connector-curvature="0" />
                </g>
                <g
                   id="g4271"
                   transform="translate(411.1719,103.4834)">
                  <path
                     d="m 0,0 3.474,0 0,-22.497 c 0,-2.256 0.173,-4.573 0.288,-6.536 l -3.586,0 -0.176,4.28 -0.113,0.114 c -2.026,-3.587 -5.325,-5.261 -9.082,-5.261 -9.487,0 -10.237,8.384 -10.237,11.737 l 0,18.163 3.471,0 0,-18.742 c 0,-5.028 2.893,-7.982 7.633,-7.982 5.726,0 8.328,4.805 8.328,10.011 L 0,0 Z"
                     style="fill:#3b4ca8;fill-opacity:1;fill-rule:nonzero;stroke:none"
                     id="path4273"
                     inkscape:connector-curvature="0" />
                </g>
                <g
                   id="g4275"
                   transform="translate(437.6055,76.7598)">
                  <path
                     d="m 0,0 c 6.648,0 8.326,7.349 8.326,12.727 0,5.555 -2.256,11.686 -8.847,11.686 -6.77,0 -9.374,-5.608 -9.374,-11.513 C -9.895,6.31 -7.58,0 0,0 m -9.895,-13.415 -3.468,0 0,33.604 c 0.058,2.257 -0.174,4.572 -0.291,6.535 l 3.589,0 0.17,-4.278 0.119,-0.116 c 2.024,3.412 6.073,5.262 9.947,5.262 8.616,0 11.914,-7.748 11.914,-15.271 0,-7.285 -3.298,-15.498 -11.74,-15.498 -4.223,0 -7.751,1.907 -10.121,5.38 l -0.119,0 0,-15.618 z"
                     style="fill:#3b4ca8;fill-opacity:1;fill-rule:nonzero;stroke:none"
                     id="path4277"
                     inkscape:connector-curvature="0" />
                </g>
                <g
                   id="g4279"
                   transform="translate(476.2373,115.3428)">
                  <path
                     d="m 0,0 -7.346,-8.271 -2.546,0 L -4.629,0 0,0 Z m 2.371,-24.005 c -0.405,5.611 -3.411,9.835 -9.428,9.835 -5.668,0 -8.675,-4.744 -9.14,-9.835 l 18.568,0 z m -18.684,-3.179 c 0.116,-6.191 2.952,-11.399 10.066,-11.399 4.106,0 7.519,2.954 8.387,6.945 l 3.642,0 C 3.991,-38.583 -0.347,-41.76 -7.346,-41.76 c -8.676,0 -12.726,7.463 -12.726,15.385 0,7.866 4.34,15.384 12.958,15.384 9.717,0 13.244,-7.115 13.244,-16.193 l -22.443,0 z"
                     style="fill:#3b4ca8;fill-opacity:1;fill-rule:nonzero;stroke:none"
                     id="path4281"
                     inkscape:connector-curvature="0" />
                </g>
                <g
                   id="g4283"
                   transform="translate(494.4551,74.4502)">
                  <path
                     d="m 0,0 -3.474,0 0,22.499 c 0.058,2.257 -0.173,4.571 -0.29,6.534 l 3.588,0 0.176,-4.277 0.113,0 c 1.041,2.947 3.647,5.03 6.535,5.145 1.157,0.059 2.314,0 3.473,-0.058 l 0,-3.352 C 9.426,26.548 8.672,26.723 7.981,26.723 2.83,26.723 0.113,23.018 0,17.467 L 0,0 Z"
                     style="fill:#3b4ca8;fill-opacity:1;fill-rule:nonzero;stroke:none"
                     id="path4285"
                     inkscape:connector-curvature="0" />
                </g>
                <path
                   d="m 514.693,74.45 -3.469,0 0,29.033 3.469,0 0,-29.033 z m 0.291,37.418 -4.051,0 0,4.34 4.051,0 0,-4.34 z"
                   style="fill:#3b4ca8;fill-opacity:1;fill-rule:nonzero;stroke:none"
                   id="path4287"
                   inkscape:connector-curvature="0" />
                <g
                   id="g4289"
                   transform="translate(545.6367,91.3379)">
                  <path
                     d="m 0,0 c -0.406,5.611 -3.413,9.835 -9.429,9.835 -5.667,0 -8.675,-4.744 -9.137,-9.835 L 0,0 Z m -18.683,-3.179 c 0.117,-6.191 2.949,-11.399 10.064,-11.399 4.109,0 7.52,2.954 8.388,6.945 l 3.644,0 c -1.793,-6.945 -6.132,-10.122 -13.13,-10.122 -8.676,0 -12.724,7.463 -12.724,15.385 0,7.866 4.337,15.384 12.955,15.384 9.718,0 13.246,-7.116 13.246,-16.193 l -22.443,0 z"
                     style="fill:#3b4ca8;fill-opacity:1;fill-rule:nonzero;stroke:none"
                     id="path4291"
                     inkscape:connector-curvature="0" />
                </g>
                <g
                   id="g4293"
                   transform="translate(577.4453,103.4834)">
                  <path
                     d="m 0,0 3.47,0 0,-22.497 c 0,-2.256 0.175,-4.573 0.289,-6.536 l -3.585,0 -0.174,4.28 -0.115,0.114 c -2.025,-3.587 -5.323,-5.261 -9.08,-5.261 -9.488,0 -10.239,8.384 -10.239,11.737 l 0,18.163 3.471,0 0,-18.742 c 0,-5.028 2.893,-7.982 7.633,-7.982 5.725,0 8.33,4.805 8.33,10.011 L 0,0 Z"
                     style="fill:#3b4ca8;fill-opacity:1;fill-rule:nonzero;stroke:none"
                     id="path4295"
                     inkscape:connector-curvature="0" />
                </g>
                <g
                   id="g4297"
                   transform="translate(594.5625,74.4502)">
                  <path
                     d="m 0,0 -3.471,0 0,22.499 c 0.057,2.257 -0.174,4.567 -0.292,6.534 l 3.589,0 0.174,-4.277 0.113,0 c 1.043,2.947 3.645,5.03 6.539,5.145 1.158,0.059 2.313,0 3.468,-0.058 l 0,-3.352 C 9.427,26.548 8.673,26.723 7.98,26.723 2.834,26.723 0.113,23.018 0,17.467 L 0,0 Z"
                     style="fill:#3b4ca8;fill-opacity:1;fill-rule:nonzero;stroke:none"
                     id="path4299"
                     inkscape:connector-curvature="0" />
                </g>
                <g
                   id="g4301"
                   transform="translate(631.9824,91.3379)">
                  <path
                     d="m 0,0 c -0.406,5.611 -3.415,9.835 -9.43,9.835 -5.668,0 -8.674,-4.744 -9.136,-9.835 L 0,0 Z m -18.68,-3.179 c 0.114,-6.191 2.946,-11.399 10.06,-11.399 4.106,0 7.52,2.954 8.39,6.945 l 3.642,0 c -1.795,-6.945 -6.131,-10.122 -13.131,-10.122 -8.677,0 -12.722,7.463 -12.722,15.385 0,7.866 4.337,15.384 12.955,15.384 9.718,0 13.245,-7.116 13.245,-16.193 l -22.439,0 z"
                     style="fill:#3b4ca8;fill-opacity:1;fill-rule:nonzero;stroke:none"
                     id="path4303"
                     inkscape:connector-curvature="0" />
                </g>
                <path
                   d="m 315.399,255.65 1.472,0 0,-213.572 -1.472,0 0,213.572 z"
                   style="fill:#3b4ca8;fill-opacity:1;fill-rule:nonzero;stroke:none"
                   id="path4305"
                   inkscape:connector-curvature="0" />
                <g
                   id="g4307"
                   transform="translate(592.1426,225.6265)">
                  <path
                     d="m 0,0 c -2.697,0 -3.775,2.311 -3.313,5.393 l 0.154,0.616 c -2.235,-3.698 -5.624,-6.317 -9.014,-6.317 -5.162,0 -6.626,5.007 -5.47,11.556 l 1.926,10.478 c 0.309,1.849 0.154,3.235 -0.847,3.235 -0.925,0 -2.542,-1.155 -3.082,-1.772 l 0,1.85 c 1.463,1.54 3.543,2.619 5.007,2.619 2.697,0 3.853,-2.234 3.314,-5.316 l -1.927,-10.709 c -0.925,-5.008 -0.385,-8.243 3.314,-8.243 2.542,0 6.933,3.775 8.397,11.787 l 2.003,11.48 4.314,0 L 1.155,5.932 C 0.847,4.16 0.924,2.773 2.003,2.773 c 0.848,0 2.465,1.156 3.081,1.695 l 0,-1.772 C 3.543,1.155 1.387,0 0,0"
                     style="fill:#3b4ca8;fill-opacity:1;fill-rule:nonzero;stroke:none"
                     id="path4309"
                     inkscape:connector-curvature="0" />
                </g>
                <g
                   id="g4311"
                   transform="translate(629.1494,241.9756)">
                  <path
                     d="M 0,0 C -0.203,5.322 -3.705,8.893 -9.5,8.893 -15.293,8.893 -19.133,5.322 -19.807,0 L 0,0 Z m 4.514,-12.867 c -3.705,-4.783 -8.153,-6.535 -14.014,-6.535 -9.903,0 -15.966,7.411 -15.966,16.573 0,9.768 6.871,16.573 16.168,16.573 8.894,0 14.957,-6.064 14.957,-16.506 l 0,-1.684 -25.466,0 c 0.404,-5.457 4.58,-10.106 10.307,-10.106 4.514,0 7.546,1.617 10.038,4.783 l 3.976,-3.098 z"
                     style="fill:#3b4ca8;fill-opacity:1;fill-rule:nonzero;stroke:none"
                     id="path4313"
                     inkscape:connector-curvature="0" />
                </g>
                <path
                   d="m 657,238.219 -6.313,0 0,-7.838 6.313,0 0,7.838 z m -12.626,-14.151 0,30.461 6.313,0 0,-9.998 12.625,0 0,-20.463 -18.938,0 z"
                   style="fill:#3b4ca8;fill-opacity:1;fill-rule:nonzero;stroke:none"
                   id="path4315"
                   inkscape:connector-curvature="0" />
                <g
                   id="g4317"
                   transform="translate(645.085,221.3071)">
                  <path
                     d="m 0,0 c -5.678,-8.202 -15.147,-13.589 -25.856,-13.589 -10.733,0 -20.22,5.409 -25.895,13.641 l -1.597,-1.105 c 6.026,-8.738 16.098,-14.479 27.492,-14.479 11.37,0 21.424,5.719 27.454,14.428 L 0,0 Z m -25.856,49.276 c 10.664,0 20.098,-5.343 25.785,-13.488 l 1.596,1.105 c -6.037,8.651 -16.056,14.327 -27.381,14.327 -11.349,0 -21.387,-5.698 -27.42,-14.379 l 1.597,-1.105 c 5.682,8.175 15.135,13.54 25.823,13.54"
                     style="fill:#3b4ca8;fill-opacity:1;fill-rule:nonzero;stroke:none"
                     id="path4319"
                     inkscape:connector-curvature="0" />
                </g>
              </g>
            </g>
          </g>
        </g>
      </g>
    </g>
  </g>
</svg>
